<svg xmlns="http://www.w3.org/2000/svg" xmlns:xlink="http://www.w3.org/1999/xlink" width="40" height="40" viewBox="0 0 40 40">
    <defs>
        <path id="a" d="M28.575 24.265a1.187 1.187 0 0 0-.059-.113c-.3-.542-.875-1.207-1.724-1.995l-.018-.018-.009-.009-.009-.009h-.009c-.385-.367-.629-.614-.73-.74-.188-.24-.23-.484-.127-.731.072-.187.343-.58.812-1.182.247-.32.442-.575.587-.767 1.04-1.384 1.492-2.268 1.353-2.654l-.053-.09c-.037-.054-.13-.103-.28-.148a1.421 1.421 0 0 0-.578-.023l-2.599.018a.337.337 0 0 0-.18.005l-.118.027-.045.022-.036.027a.401.401 0 0 0-.1.095.62.62 0 0 0-.09.158 14.736 14.736 0 0 1-.965 2.03c-.223.374-.427.697-.614.97a4.668 4.668 0 0 1-.469.605c-.126.13-.24.233-.343.312-.102.078-.18.111-.235.099a6.613 6.613 0 0 1-.153-.036.6.6 0 0 1-.203-.221.99.99 0 0 1-.104-.352 3.88 3.88 0 0 1-.032-.366 7.636 7.636 0 0 1 .005-.433c.006-.187.01-.313.01-.38 0-.228.004-.476.013-.744l.022-.636c.006-.156.01-.322.01-.496 0-.175-.011-.312-.032-.41-.021-.1-.053-.196-.095-.29a.486.486 0 0 0-.185-.216 1.043 1.043 0 0 0-.302-.122 6.005 6.005 0 0 0-1.219-.117c-1.119-.012-1.838.06-2.157.216-.126.066-.24.157-.343.27-.108.133-.123.206-.045.217.361.055.617.184.767.389l.054.108c.043.078.085.217.127.415.042.199.07.418.081.659.03.439.03.815 0 1.128-.03.313-.058.556-.086.73a1.464 1.464 0 0 1-.23.623.155.155 0 0 1-.045.046.676.676 0 0 1-.244.045c-.084 0-.186-.042-.306-.127-.12-.084-.246-.2-.375-.347a4.645 4.645 0 0 1-.438-.618c-.162-.265-.33-.578-.505-.939l-.144-.262c-.09-.168-.214-.413-.37-.735a14.181 14.181 0 0 1-.416-.934.595.595 0 0 0-.216-.289l-.045-.027a.958.958 0 0 0-.352-.135l-2.473.018c-.253 0-.424.057-.514.171l-.037.054a.292.292 0 0 0-.027.145c0 .066.018.147.055.243.36.849.753 1.667 1.177 2.455.424.788.793 1.423 1.106 1.904.313.481.631.936.956 1.363.325.427.54.7.646.821.105.12.188.21.248.27l.225.217c.145.145.357.318.637.52.28.2.59.4.93.595.34.195.735.355 1.186.478.451.124.89.173 1.318.15h1.037c.211-.019.37-.085.479-.2l.036-.045a.598.598 0 0 0 .067-.166.917.917 0 0 0 .032-.248 2.974 2.974 0 0 1 .058-.7c.045-.207.097-.364.154-.47a1.153 1.153 0 0 1 .348-.396.589.589 0 0 1 .072-.032c.144-.048.314-.001.51.14.195.142.379.316.55.524.172.207.378.44.618.7.241.258.452.45.632.577l.18.108c.121.072.277.138.47.199.192.06.36.075.505.045l2.31-.036c.229 0 .407-.038.533-.113.126-.075.201-.158.226-.248a.699.699 0 0 0 .004-.307 1.133 1.133 0 0 0-.063-.24z"/>
    </defs>
    <g fill="none" fill-rule="evenodd">
        <rect width="40" height="40" fill="#3D93CC" fill-rule="nonzero" rx="20"/>
        <use fill="#FFF" fill-rule="nonzero" xlink:href="#a"/>
    </g>
</svg>
